<?xml version="1.0" encoding="utf-8"?>
<svg xmlns="http://www.w3.org/2000/svg" viewBox="0 0 500 500">
  <g id="OBJECTS" transform="matrix(0.666843, 0, 0, 0.683043, 0.202222, 160.424011)" style="">
    <g>
      <defs>
        <rect id="SVGID_1_" width="750" height="500"/>
      </defs>
      <clipPath id="SVGID_00000103258758012897263300000013766208051115736720_">
        <rect width="750" height="500" style="overflow: visible;" x="173.779" y="124.878"/>
      </clipPath>
      <g style="clip-path:url(#SVGID_00000103258758012897263300000013766208051115736720_);">
        <polygon style="fill:#919191;" points="749.085,156.194 749.133,156.192 749.085,154.862 &#9;&#9;&#9;"/>
      </g>
      <path style="clip-path:url(#SVGID_00000103258758012897263300000013766208051115736720_);fill:#919191;" d="M72.325,370.45 c1.043,1.506,0.719,3.885,2.242,4.912c3.273,7.812,0.916,16.544,3.013,24.503c0.856,3.244,2.429,6.265,3.285,9.511 c1.015,3.861,0.976,7.91,0.934,11.902c-0.083,7.625-0.166,15.251-0.25,22.877h69.033c1.403-9.881,1.414-19.917,1.4-29.906 c-0.011-9.319-0.023-18.639-0.034-27.958c-0.002-1.884-0.003-3.779,0.337-5.632c0.303-1.645,0.869-3.228,1.433-4.803 c0.275-0.768,0.55-1.536,0.825-2.304c0.106-0.294,0.212-0.589,0.317-0.882c0.708-1.977,1.417-3.952,2.123-5.929 c2.911-2.388,4.78-2.966,6.456-3.934c2.115-1.223,3.84-3.021,5.898-4.336c1.643-1.051,3.482-1.785,5.05-2.943 c1.466-1.083,2.645-2.502,3.809-3.906c0.615-0.742,1.246-1.513,1.524-2.435c0.639-2.121-0.727-4.276-2.024-6.07 c-3.586-4.967-7.171-9.932-10.759-14.899c-3.512-4.105-7.28-8.727-11.05-13.347c-1.757-2.152-3.54-4.352-4.56-6.937 c-0.833-2.112-1.16-4.48-2.548-6.278c-1.29-1.672-3.307-2.593-5.274-3.366c-1.054-0.415-2.366-0.768-3.226-0.029 c-0.229,0.197-0.412,0.464-0.69,0.583c-0.392,0.166-0.838-0.013-1.24-0.158c-1.178-0.423-2.546-0.527-3.648,0.072 c-1.101,0.597-1.783,2.038-1.248,3.172c-0.54-0.19-1.225-0.361-1.892-0.223c-0.665,0.138-1.298,0.686-1.293,1.366 c0.007,1.01,1.214,1.472,2.074,2.004c2.417,1.493,2.813,4.871,4.699,6.999c2.403,2.717,6.641,2.842,9.561,4.988 c2.338,1.717,3.573,4.515,4.707,7.183l8.356,19.647c-1.368,0.342-2.632,0.654-3.843,1.121c-1.211,0.467-2.392,1.114-3.2,2.125 c-1.285-1.495-2.631-2.159-3.877-2.27c-1.248-0.111-2.5,0.173-3.75,0.094c-0.685-0.041-1.367-0.192-2.051-0.143 c-0.87,0.064-1.736,0.444-2.587,0.257c-1.15-0.255-1.938-1.484-3.109-1.606c-0.978-0.103-1.877,0.612-2.86,0.617 c-0.968,0.005-1.788-0.661-2.675-1.046c-1.492-0.651-3.311-0.478-4.653,0.439c-1.494-3.438-1.666-5.634-1.837-7.83 c0.392-1.804,1.02-2.629,1.433-3.568c0.415-0.939,0.6-2.009,0.322-2.997c-0.277-0.988-1.079-1.858-2.087-2.035 c-0.223-3.521-0.568-6.573-1.638-9.402c-1.07-2.828-2.925-5.432-5.518-6.988c-1.263-0.756-2.673-1.251-4.114-1.558 c-5.037-1.072-10.62,0.29-14.336,3.857c-3.716,3.566-5.292,9.326-3.553,14.174c-1.461,0.952-2.208,2.097-2.359,3.265 c-0.151,1.171,0.205,2.354,0.717,3.415c0.516,1.062,1.188,2.04,1.731,3.086c-0.047,1.899,0.12,3.794,0.475,5.653 c-2.039-0.05-3.5,0.472-4.755,1.302c-0.573,0.377-1.124,0.826-1.79,0.989c-1.892,0.465-3.753-1.534-5.639-1.045 c-0.983,0.254-1.874,1.168-2.847,0.875c-0.532-0.161-0.89-0.646-1.339-0.971c-1.105-0.802-2.639-0.573-3.936-0.146 c-0.454,0.148-0.935,0.319-1.397,0.197c-0.394-0.104-0.701-0.404-1.018-0.659c-1.72-1.383-4.279-1.616-6.218-0.566 c-3.169-0.781-5.927-1.508-8.53-2.606c-0.854-0.361-1.731-0.794-2.274-1.547c-1.046-1.454-0.485-3.469,0.143-5.146 c2.722-7.284,5.964-14.361,9.205-21.428c4.715-0.656,8.849-2.232,11.902-5.024c1.189-0.35,2.208-0.652,2.954-1.328 c0.747-0.677,1.157-1.785,0.812-2.73c-0.09-0.247-0.231-0.482-0.439-0.641c-0.487-0.374-1.176-0.259-1.775-0.124 c-0.643-2.082-1.121-3.81-1.965-5.336c-0.103-0.187-0.213-0.373-0.376-0.511c-0.521-0.444-1.311-0.226-1.951,0.016 c-1.542-0.343-2.699-0.169-3.622,0.402c-0.2,0.124-0.399,0.268-0.63,0.311c-0.327,0.057-0.646-0.098-0.966-0.176 c-0.664-0.163-1.404,0.026-1.908,0.487c-0.327,0.296-0.574,0.706-0.981,0.877c-0.369,0.156-0.791,0.08-1.193,0.101 c-1.435,0.073-2.484,1.354-3.231,2.58c-1.153,1.894-2.063,3.936-2.696,6.06c-2.741,3.592-5.071,6.723-7.557,9.721 c-4.737,5.715-10.066,10.98-14.136,17.187c-1.516,2.315-2.87,4.798-3.426,7.51c-0.556,2.71-0.236,5.697,1.365,7.956 c2.466,3.485,7.124,4.402,10.995,6.205c6.036,2.81,10.835,8.257,17.332,9.713c-0.02,0.54,0.847,2.164,1.311,2.442 c1.054,0.633,2.3,0.828,3.491,1.139C70.395,368.946,71.623,369.439,72.325,370.45z"/>
      <path style="clip-path:url(#SVGID_00000103258758012897263300000013766208051115736720_);fill:#919191;" d="M 326.67 149.663 C 325.855 149.806 325.309 150.584 325.452 151.399 L 325.475 151.529 C 320.803 155.022 305.109 167.961 302.235 186.179 C 298.851 207.624 298.654 225.731 286.427 239.792 C 274.2 253.853 273.997 278.712 290.263 296.707 C 290.263 296.707 295.452 271.967 313.634 262.42 C 328.188 254.779 336.54 237.057 339.3 230.276 L 372.518 419.49 C 372.661 420.305 373.439 420.851 374.254 420.708 C 375.069 420.565 375.615 419.787 375.472 418.972 L 328.407 150.882 C 328.264 150.065 327.486 149.52 326.67 149.663 Z"/>
    </g>
    <g>
      <defs>
        <rect id="SVGID_00000091736589796172825650000007116823562516633259_" width="750" height="500"/>
      </defs>
      <clipPath id="SVGID_00000180344066434679685280000005324308796915055515_">
        <rect width="750" height="500" style="overflow: visible;"/>
      </clipPath>
      <path style="clip-path:url(#SVGID_00000180344066434679685280000005324308796915055515_);fill:#2B2B2B;" d="M776.616,380.584 c-0.649-1.777-1.412-3.528-1.779-5.383c-0.442-2.232-0.292-4.53-0.214-6.801c0.212-6.216-0.143-12.448-1.025-18.604 c-0.402-2.8-0.912-5.605-0.842-8.434c0.056-2.313,0.502-4.594,0.801-6.888c0.51-3.913,0.594-7.869,0.515-11.813 c-0.186-9.413-1.305-18.854-0.322-28.217c0.397-3.761,1.012-7.977-1.309-10.961c1.059-7.002,0.513-12.472-1.235-17.531 c-0.468-1.354-1.023-2.685-1.344-4.08c-0.359-1.559-0.423-3.167-0.57-4.759c-0.786-8.546-4.678-16.412-9.33-23.625 c-0.778-1.205-1.455-2.398-2.241-3.528c-0.927-1.331-1.886-2.749-2.001-4.368c-0.117-1.604,0.615-3.129,0.993-4.69 c0.41-1.691,0.406-3.479-0.011-5.165c-0.192-0.773-0.479-1.546-1.019-2.129c-0.542-0.583-1.376-0.942-2.147-0.739 c-0.583,0.152-1.359,0.53-1.656,0.008c-0.086-0.152-0.086-0.337-0.149-0.5c-0.214-0.592-1.025-0.643-1.647-0.54 c-0.622,0.105-1.376,0.216-1.775-0.271c-0.162-0.199-0.224-0.461-0.365-0.675c-0.523-0.794-1.768-0.547-2.55-0.008 c-0.781,0.542-1.51,1.313-2.46,1.337c-0.448,0.011-0.888-0.152-1.331-0.105c-1.157,0.124-1.677,1.495-1.894,2.638 c-0.446,2.354-0.543,5.115,1.17,6.79c-1.16,1.824-1.452,3.065-1.44,4.302c0.007,0.643,0.103,1.312,0.468,1.839 c0.26,0.376,0.634,0.652,1.002,0.921c1.216,0.893,2.435,1.785,3.654,2.678c3.789,2.674,5.382,7.706,5.891,12.45 c0.508,4.746,0.203,9.616,1.493,14.21c0.393,1.393,0.931,2.768,1.012,4.214c0.186,3.338-2.082,6.48-1.753,9.804 c-0.468,0.827-1.6,1.081-2.608,1.36c-1.606,0.442-3.148,1.122-4.56,2.008c-1.525-1.907-1.653-4.118-1.781-6.329 c1.831-0.724,3.285-2.243,4.144-4.015c0.861-1.771,1.158-3.776,1.096-5.745c-0.039-1.354-0.453-2.963-1.743-3.375 c0.461-4.863-0.252-9.55-1.73-13.986c-0.822-2.467-1.94-4.945-3.928-6.621c-1.583-1.337-3.586-2.053-5.557-2.696 c-2.215-0.724-4.475-1.391-6.801-1.504c-4.045-0.196-8.025,1.314-11.406,3.541c-2.77,1.826-5.274,4.223-6.589,7.27 c-2.104,4.876-0.861,10.477,0.463,15.62c-1.766,2.411-1.871,4.635-1.277,6.549c0.592,1.914,1.798,3.573,3.063,5.126 c0.951,4.402,2.651,8.65,5.25,12.256c-5.6,5.205-11.651,9.874-18.822,10.853c-1.51,0.205-3.08,0.25-4.47,0.878 c-1.386,0.628-2.46,1.773-3.492,2.892c-4.25,4.595-8.757,9.804-8.843,16.066c-0.068,5.013,2.787,9.81,2.268,14.797 c-0.165,1.611-0.686,3.2-0.562,4.817c0.162,2.106,1.399,4,1.69,6.092c0.179,1.282-0.006,2.593,0.164,3.875 c0.169,1.284,0.82,2.64,2.042,3.071c-0.293,15.287,0.643,31.165,2.962,46.838c0.474,3.197,1.006,6.429,0.669,9.642 c-0.333,3.173-1.405,6.673-1.262,9.75h87.093c-0.212-3.358-0.316-6.726-0.308-10.092c2.023,0.651,2.873-1.476,2.937-3.059 C779.544,391.987,778.624,386.088,776.616,380.584z"/>
      <path style="clip-path:url(#SVGID_00000180344066434679685280000005324308796915055515_);fill:#2B2B2B;" d="M263.205,219.937 c0.216-0.908,0.226-1.917-0.25-2.718c-0.476-0.801-1.548-1.29-2.39-0.886c0.335-0.729,0.113-1.669-0.511-2.173 c-0.621-0.503-1.588-0.523-2.23-0.043c-0.531-0.737-0.456-1.782-0.971-2.531c-0.603-0.88-1.909-1.078-2.88-0.632 c-0.971,0.444-1.633,1.39-2.01,2.389c-0.981-4.317-1.1-8.686-1.312-13.052c-0.042-0.902-0.107-1.857-0.622-2.597 c-0.119-0.174-0.268-0.337-0.464-0.414c-0.436-0.172-0.91,0.129-1.233,0.466c-1.217,1.268-1.558,3.116-1.843,4.85l-1.99,12.083 c-1.102-1.936-2.604-3.338-4.392-3.994c-0.496-0.182-1.108-0.289-1.506,0.059c-0.634,0.555-0.123,1.574,0.357,2.266 c4.458,6.426,4.099,15.264,8.463,21.754c1.007,16.788-14.725,31.002-14.291,47.933c0.028,1.086,0.121,2.192-0.149,3.243 c-0.373,1.453-1.393,2.638-2.351,3.79c-7.052,8.481-12.4,18.374-15.633,28.919c-2.408-0.143-3.966-0.157-5.197,0.341 c-1.229,0.498-2.236,1.411-3.3,2.204c-0.937,0.696-1.938,1.31-2.808,2.087c-0.63,0.559-1.181,1.199-1.8,1.77 c-2.224,2.056-5.157,3.134-8.004,4.164c-1.441-2.803-1.33-6.428-1.033-10.039c1.292-2.634,2.426-3.148,3.344-3.818 c1.841-1.348,2.967-3.627,2.916-5.907c-0.048-2.283-1.271-4.511-3.171-5.778c1.015-6.505,2.018-11.786,0.046-16.402 c-2.535-5.935-9.373-8.977-15.817-9.361c-8.16-0.49-16.917,2.896-21.103,9.92c-2.85,4.783-3.314,10.685-2.454,16.186 c-2.666,5.843-1.294,11.581,2.612,14.015c-0.061,2.432-0.121,4.862-0.182,7.294c-1.072-1.962-2.668-3.06-4.283-3.839 c-1.615-0.779-3.352-1.352-4.777-2.44c-0.965-0.737-1.752-1.683-2.706-2.43c-1.275-0.999-2.842-1.621-4.454-1.774 c-6.844-12.208-11.827-24.015-15.032-36.314c-3.469-13.308-4.832-27.079-5.484-40.816c-0.218-2.091,1.265-3.762,2.878-4.838 c1.613-1.076,3.469-1.824,4.85-3.187c3.173-3.136,2.993-8.64,6.258-11.677c0.678-0.63,1.556-1.273,1.54-2.2 c-0.016-0.729-0.648-1.338-1.35-1.53c-0.704-0.19-1.457-0.042-2.149,0.186c-2.422,0.797-4.491,2.616-5.595,4.914 c0.16-3.054,0.842-6.002,1.405-8.975c0.456-2.404,0.834-4.86,0.567-7.294c-0.107-0.985-0.349-2.014-1.043-2.721 c-0.694-0.706-1.96-0.924-2.66-0.226c-0.228-1.512-0.347-2.759-0.777-3.883c-0.2-0.521-0.519-1.064-1.054-1.225 c-0.48-0.141-0.995,0.067-1.419,0.333c-1.286,0.809-2.184,2.21-2.382,3.716c0.105-0.709-0.424-1.425-1.112-1.623 c-0.688-0.2-1.463,0.075-1.952,0.599c-0.386,0.416-0.603,0.957-0.791,1.489c-0.45,1.282-0.777,2.609-0.969,3.954 c-1.927,0.24-2.862,1.058-3.383,2.02c-0.521,0.963-0.706,2.067-0.904,3.142c-0.741,4.036-1.768,8.018-3.068,11.91 c-0.815,2.438-1.746,4.872-1.982,7.431c-0.238,2.559,0.319,5.326,2.117,7.161c-3.625,22.176,3.467,44.819,6.797,67.425 c0.856,5.81,1.469,11.685,3.1,17.326c2.636,9.112,7.819,17.252,13.104,25.127c-1.154,5.659,3.356,12.14,7.702,17.339 c1.409,1.687,2.856,3.407,3.621,5.467c0.622,1.679,0.757,3.492,0.886,5.278c0.359,4.971,0.717,9.972,0.212,14.929 c-0.339,3.324-1.066,6.628-0.963,9.966c0.105,3.457,1.094,6.816,1.863,10.186c1.369,6.005,2.01,12.168,1.994,18.329h80.833 c-0.297-4.567-0.569-9.137-0.65-13.711c-0.198-11.415,0.735-22.818,1.665-34.197c0.517-6.331,1.035-12.664,1.552-18.993 c0.486-5.948,0.94-12.129-1.205-17.696c8.501-18.053,14.339-33.777,18.352-49.955c7.148-19.137,13.554-37.024,13.338-55.55 c1.907-3.399,2.212-7.3,0.718-10.414c-0.404-0.985-0.291-2.254,0.067-3.453C262.592,221.697,262.989,220.845,263.205,219.937z"/>
      <path style="clip-path:url(#SVGID_00000180344066434679685280000005324308796915055515_);fill:#2B2B2B;" d="M513.851,345.904 c0.912,0.533,4.878,0.028,4.878,0.028c-0.778,7.32-0.979,14.695-0.662,22.048H598.8l0.276-13.845 c0.606,0.31,1.283-0.257,1.699-0.799c3.799-4.935,4.596-11.604,3.943-17.798c-0.653-6.196-2.591-12.176-3.714-18.303 c-1.155-6.309-1.445-12.75-2.514-19.075c-1.073-6.323-3.011-12.685-7.017-17.697c-1.662-6.102-3.154-10.71-4.827-15.25 c2.052-3.057,1.435-6.161,0.657-8.612c-2.317-7.286-4.632-14.57-6.948-21.857c-1.269-3.992-2.706-8.233-6.011-10.808 c-3.39-2.64-7.986-2.942-12.278-3.138l-9.877-0.448c-0.509,0.308-2.544-3.1-2.544-3.1c1.478-4.069,1.999-8.482,1.512-12.785 c1.231-2.585,2.09-3.996,3.13-5.257c0.401-0.484,0.852-1.001,0.872-1.63c0.028-0.785-0.628-1.456-0.661-2.24 c-0.022-0.562,0.276-1.077,0.452-1.61c0.835-2.488-0.959-5.133-0.736-7.748c0.079-0.953,0.43-1.893,0.296-2.84 c-0.146-1.018-0.823-1.867-1.253-2.8c-0.969-2.088-0.762-4.722-2.279-6.455c-0.689-0.789-1.654-1.279-2.467-1.944 c-1.462-1.196-2.406-2.936-3.89-4.105c-2.439-1.922-5.818-1.956-8.922-1.896c-2.21,0.043-4.466,0.097-6.546,0.847 c-1.995,0.722-3.755,2.082-4.953,3.834c-0.444,0.649-0.876,1.399-1.624,1.64c-0.515,0.166-1.083,0.047-1.612,0.164 c-1.235,0.27-1.833,1.646-2.24,2.842c-0.677,1.993-1.354,3.984-2.031,5.977c-0.663,1.948-1.336,3.967-1.17,6.019 c0.245,3.029,2.295,5.804,2.013,8.829c-0.422-1.054-1.182-0.768-1.547-0.255c-0.365,0.515-0.43,1.18-0.45,1.811 c-0.065,2.153,0.28,4.351,1.263,6.267c0.983,1.916,2.646,3.529,4.691,4.205c0.967,4.209,1.334,7.635,1.703,11.061 c-1.251,1.405-1.904,1.75-2.617,1.813c-0.819,0.069-1.616-0.241-2.421-0.408c-0.805-0.164-1.747-0.14-2.317,0.454 c-0.369,0.381-0.596,0.997-1.121,1.069c-0.29,0.038-0.568-0.116-0.817-0.268c-1.17-0.712-2.297-1.521-3.582-1.997 c-1.283-0.476-2.792-0.578-3.973,0.111c-0.604,0.351-1.105,0.894-1.774,1.093c-1.817,0.539-3.899-1.666-5.46-0.592 c-3.935-7.153-9.589-12.146-16.196-14.919c-0.904-6.587-1.888-12.422-3.479-18.086c-0.77-2.747-1.693-5.494-1.804-8.344 c-0.051-1.302,0.162-2.782,1.222-3.54c0.379-0.27,0.829-0.418,1.251-0.616c1.598-0.758,2.779-2.398,2.846-4.164 c0.065-1.768-1.077-3.552-2.759-4.099c-0.185-2.925-0.764-5.557-1.646-8.081c-0.229-0.659-0.497-1.334-1.01-1.808 c-0.507-0.466-1.231-0.685-1.91-0.576c-0.679,0.109-1.299,0.545-1.634,1.147c-2.137-1.711-5.156-1.344-6.382,0.547 c-1.587-0.878-3.809-0.33-4.805,1.186c-0.211,0.32-0.383,0.687-0.701,0.902c-0.473,0.318-1.105,0.203-1.658,0.335 c-1.308,0.308-1.871,1.859-1.973,3.197c-0.197,2.583,0.539,5.224,2.042,7.335c1.47,12.872-0.681,25.717,3.913,37.098 c2.496,6.183,6.806,11.426,10.945,16.654c6.808,8.602,13.315,17.443,19.505,26.501c1.508,3.371,2.094,6.781,3.696,9.766 c1.449,2.702,3.696,4.981,4.699,7.878c0.821,2.366,0.74,4.943,1.287,7.386c0.659,2.944,2.202,5.597,3.517,8.31 c4.547,9.372,6.506,19.831,7.019,30.236C515.615,325.107,514.733,335.524,513.851,345.904z"/>
      <path style="clip-path:url(#SVGID_00000180344066434679685280000005324308796915055515_);fill:#2B2B2B;" d="M706.294,193.003 c-1.419-4.842-3.489-9.463-5.551-14.067c-3.614-8.067-7.23-16.135-10.844-24.202c-0.699-1.56-1.414-3.145-2.546-4.424 c-1.132-1.279-2.769-2.226-4.473-2.116c-0.9-3.592-1.812-7.267-3.083-10.814c-0.635-1.777-1.373-3.542-2.511-5.045 c-0.72-0.951-1.644-1.816-2.792-2.138c-1.148-0.324-2.546,0.029-3.161,1.052c-0.828-0.248-1.552-0.763-2.37-1.044 c-0.816-0.281-1.845-0.266-2.405,0.394c-0.148,0.176-0.256,0.391-0.441,0.527c-0.609,0.447-1.416-0.219-2.169-0.264 c-1.22-0.074-1.948,1.456-3.138,1.755c-0.336,0.086-0.703,0.066-1.011,0.229c-0.42,0.221-0.613,0.711-0.722,1.172 c-0.281,1.175-0.24,2.423,0.117,3.575c-0.164,0.804-0.748,1.041-1.13,1.265c-0.619,0.365-0.892,1.156-0.818,1.87 c0.074,0.717,0.433,1.371,0.832,1.97c1.269,1.911,3.024,3.499,5.051,4.574c1.87,0.99,3.993,1.57,5.609,2.936 c1.664,1.406,2.591,3.475,3.444,5.48c-0.705,0.129-0.886,0.724-0.945,1.236c-0.203,1.829,0.213,3.669,0.679,5.449 c2.739,10.465,7.347,20.438,13.536,29.309c-2.507,2.489-4.246,4.282-5.986,6.074c-0.556,0.574-1.125,1.158-1.833,1.531 c-1.279,0.676-2.821,0.572-4.217,0.961c-2.48,0.691-4.385,2.901-6.927,3.307c-2.534,0.406-4.955-1.08-7.025-2.597 c-2.07-1.519-4.258-3.206-6.824-3.284c0.215-1.835,1.142-4.287,1.162-6.759c0.019-2.472-0.867-4.938-2.454-6.831 c0.244-4.137,0.084-7.811-0.83-11.338c-0.916-3.528-2.649-6.941-5.447-9.274c-2.964-2.472-6.935-3.548-10.791-3.43 c-3.858,0.115-7.614,1.351-11.066,3.075c-2.025,1.013-3.998,2.224-5.484,3.932c-2.068,2.376-3.034,5.549-3.272,8.688 c-0.24,3.14,0.193,6.287,0.623,9.405c-1.378,1.318-2.241,1.868-2.743,2.712c-0.41,0.691-0.537,1.509-0.623,2.308 c-0.215,2.031-0.207,4.116,0.383,6.07c0.588,1.954,1.812,3.774,3.59,4.774c-1.786,7.064-7.839,11.64-13.485,15.639 c-2.378,1.683-4.754,3.364-7.132,5.047c-1.781,1.261-3.571,2.53-5.113,4.073c-5.443,5.443-7.138,13.544-7.893,21.203 c-0.363,3.676-0.582,7.427-1.862,10.892c-0.533,1.441-1.244,2.811-1.74,4.264c-0.908,2.657-1.076,5.5-1.238,8.304 c-0.709,12.394-1.417,24.786-2.128,37.182c-0.156,2.731-0.302,5.541,0.547,8.143c1.698,5.207,6.872,8.335,11.654,11.008 c-0.736,9.728-1.703,20.133-2.338,30.579h106.548c-1.159-11.141-2.883-25.85-5.09-36.567c4.719-2.116,8.616-5.994,10.108-10.344 c1.49-4.35,1.107-9.088,0.707-13.671c-1.835-20.992-3.669-41.985-5.502-62.977c3.827-4.565,3.594-9.707,6.035-13.264 c0.656-0.953,1.492-1.773,2.115-2.747c1.447-2.253,1.622-5.08,2.634-7.56c1.195-2.932,3.544-5.34,4.41-8.386 C707.739,198.951,707.134,195.872,706.294,193.003z"/>
      <path style="clip-path:url(#SVGID_00000180344066434679685280000005324308796915055515_);fill:#2B2B2B;" d="M495.264,333.077 c0.042,2.232,0.454,4.462,0.252,6.686c-0.229,2.514-1.224,4.885-1.774,7.348c-1.097,4.946-0.416,10.359-2.716,14.872 c-1.56,3.064-4.462,5.411-7.781,6.298c-0.783,4.681,2.404,8.564,3.389,12.873c0.957,4.197-0.221,8.615,0.395,12.876 c0.55,3.794,2.485,7.24,3.478,10.943c1.528,5.704,0.783,11.882,2.682,17.476c0.995,2.93,2.712,5.695,2.852,8.787 c0.142,3.091-2.298,6.629-5.337,6.041c1.091,5.44,1.373,10.69,1.218,15.906h-97.591c0.29-4.996,0.68-9.986,1.272-14.955 c-3.204-2.767-4.77-5.659-5.271-8.579c-0.501-2.92-0.091-5.909,0.318-8.844c1.92-13.748,3.841-27.497,5.761-41.247 c-0.276-2.073-1.093-1.975-1.844-1.954c-3.204,0.093-6.398-1.649-8.055-4.392c-1.214-2.009-1.606-4.435-1.464-6.777 c0.142-2.342,0.789-4.626,1.536-6.849c-0.8-2.706-0.838-4.231-0.403-5.441c0.435-1.21,1.239-2.249,1.755-3.425 c1.139-2.601,0.774-5.621,1.606-8.335c0.768-2.502,2.493-4.577,3.775-6.86c1.734-3.085,2.652-6.552,3.556-9.977 c0.681-2.591,1.366-5.192,1.693-7.851c0.429-3.478,0.248-7.055,1.207-10.425c1.176-4.129,3.968-7.601,6.983-10.654 c1.852-1.88,3.841-3.665,6.143-4.953c6.987-3.909,15.564-2.693,23.532-3.465c1.753-3.121,1.918-5.152,2.067-7.185 c0.076-1.038,0.142-2.118-0.233-3.092c-0.318-0.83-0.944-1.53-1.182-2.389c-0.416-1.492,0.418-3.159-0.147-4.602 c-0.263-0.673-0.796-1.195-1.239-1.767c-2.224-2.869-1.973-7.367,0.558-9.973c-2.045-6.805-1.583-14.289,2.065-20.126 c3.65-5.835,10.728-9.638,17.52-8.519c2.826,0.465,5.462,1.706,7.976,3.073c3.875,2.107,7.745,4.755,9.623,8.746 c0.889,1.889,1.273,3.974,1.487,6.052c0.526,5.077,0.064,10.255-1.354,15.159c2.02,1.744,2.29,3.675,2.294,5.398 c0.004,2.035-0.331,4.301-1.918,5.572c-1.615,1.292-4.07,1.161-5.61,2.54c-1.818,1.63-1.61,4.634-3.159,6.523 c0.721,2.846,0.912,5.888,0.94,8.929c2.892,0.649,5.697,1.252,8.502,1.855c3.711,0.798,7.624,1.698,10.378,4.307 c1.349,1.28,2.385,2.941,4.012,3.836c0.787,0.433,1.668,0.658,2.489,1.016c4.899,2.139,6.58,8.371,6.109,13.695 C497.14,322.569,495.156,327.734,495.264,333.077z"/>
    </g>
    <path d="M553.594,94.198c0.959,0.057,1.691,0.881,1.634,1.839l-0.07,1.189c3.207,2.622,12.492,8.013,38.762,14.454 c56.108,13.756,70.489,50.632,70.489,50.632s-29.283-4.712-62.552,13.577c-24.656,13.554-45.875,9.696-51.823,8.191 l-15.445,261.777c-0.057,0.958-0.881,1.691-1.839,1.634c-0.959-0.057-1.691-0.881-1.634-1.839l20.639-349.82 C551.811,94.874,552.635,94.141,553.594,94.198z"/>
    <g>
      <defs>
        <rect id="SVGID_00000068665948116251368420000012912847332687741877_" width="750" height="500"/>
      </defs>
      <clipPath id="SVGID_00000043442006855363802930000003643233083578700210_">
        <rect width="750" height="500" style="overflow: visible;"/>
      </clipPath>
      <path style="clip-path:url(#SVGID_00000043442006855363802930000003643233083578700210_);" d="M-4.314,507.31h791.145 c-1.46-11.095-0.827-25.217-0.431-36.066c0.419-11.483,0.543-23.141-2.347-34.259c-2.89-11.12-9.16-21.795-19.009-27.709 c-6.872-4.127-16.066-5.536-22.766-1.136c-3.598-8.486-3.76-18.332-4.903-28.025c-1.144-9.693-3.415-19.586-9.205-27.443 c-5.788-7.859-15.782-13.24-25.329-11.206c-1.746-10.793-2.525-19.155-6.411-26.296c-3.886-7.139-11.752-12.778-19.775-11.466 c-0.978,0.16-1.962,0.42-2.947,0.307c-0.887-0.103-1.709-0.5-2.568-0.744c-3.381-0.96-7.076,0.58-9.601,3.024 c-2.527,2.444-4.117,5.67-5.657,8.83c-5.35-7.088-12.918-10.682-20.407-10.32c-7.488,0.363-14.674,4.67-18.524,11.105 c-3.556,5.944-4.232,13.159-4.177,20.085c-0.822,0.304-1.478,1.049-1.847,1.877c-0.369,0.828-0.494,1.74-0.614,2.639 c-0.721-1.271-1.276-2.636-1.647-4.049c-0.281-1.067-0.461-2.166-0.875-3.187c-0.416-1.023-1.112-1.99-2.123-2.432 c-2.113-2.957-3.317-5.985-3.755-9.178c-0.535-3.916,0.104-7.946-0.667-11.821c0.351-1.953,1.194-2.948,1.986-3.956 c0.792-1.01,1.558-2.086,1.862-3.331c0.302-1.247,0.041-2.708-0.949-3.523c0.609-0.967,0.969-2.089,1.038-3.231 c0.041-0.671-0.106-1.479-0.722-1.747c-0.709-0.308-1.454,0.308-1.981,0.874l-2.921,3.134c-0.691-2.457-0.922-4.72-0.898-6.979 c0.012-1.078,0.069-2.206-0.411-3.171c-0.278-0.561-0.84-1.07-1.457-0.969c-0.583,0.094-0.944,0.668-1.214,1.194 c-0.617,1.204-1.159,2.447-1.619,3.721c-0.366-1.12-0.759-2.948-1.43-4.668c-0.204-0.521-0.447-1.056-0.886-1.406 c-0.438-0.348-1.123-0.449-1.546-0.083c-0.331,0.289-0.461,0.809-0.871,0.961c-0.304,0.113-0.636-0.023-0.96-0.015 c-0.49,0.009-0.923,0.36-1.17,0.784c-0.245,0.426-0.334,0.92-0.413,1.407c-0.508,3.153-0.706,6.349-0.904,9.538 c-2.33-0.898-4.04-1.502-5.803-1.813c-0.233-0.039-0.502-0.067-0.674,0.092c-0.11,0.101-0.154,0.254-0.18,0.402 c-0.211,1.262,0.602,2.463,1.501,3.372c1.008,1.019,2.202,1.883,3.564,2.335c-0.165,1.15-0.369,2.267-0.429,3.394 c-5.649-1.756-11.656-0.023-15.466,3.731c-3.81,3.757-5.625,9.181-5.932,14.523c-3.638,7.357-3.814,17.061-0.514,25.456 c-1.634,2.599-4.018,4.425-6.426,4.262c-1.415-0.095-2.897-0.777-4.188-0.189c-0.423,0.193-0.78,0.508-1.128,0.817 c-0.786,0.7-1.572,1.4-2.359,2.099c-1.889,1.685-3.796,3.388-5.241,5.466c-1.764-1.422-2.451-2.126-2.98-2.935 c-0.534-0.819-0.91-1.753-1.596-2.448c-0.686-0.695-1.844-1.079-2.643-0.517c-0.981-1.916-2.565-3.521-4.469-4.528 c0.233-1.189-0.177-2.382-0.497-3.316c-1.022-2.971-0.517-6.214-0.538-9.355c-0.042-5.495-1.82-11.026-5.297-15.284 c-3.477-4.256-8.688-7.147-14.176-7.473c-3.316-2.571-6.379-2.76-9.148-2.766c-3.048-0.006-6.198,0.089-8.965,1.366 c-4.275,1.972-6.94,6.576-7.488,11.25c-0.547,4.676,0.76,9.399,2.716,13.682c0.162,4.256,0.071,7.884-0.02,11.513 c-2.196,0.407-3.354,1.886-3.926,3.571c-0.621,1.829-0.555,3.82-0.978,5.705c-0.497,2.202-1.647,4.2-2.326,6.353 c-1.328,4.223-0.781,8.777-0.219,13.168c-2.584,1.185-4.092,1.658-5.602,2.129c-0.245,0.077-0.547,0.141-0.728-0.041 c-0.092-0.094-0.125-0.23-0.145-0.36c-0.169-1.016,0.159-2.051,0.586-2.989c0.429-0.939,0.964-1.836,1.251-2.826 c0.287-0.99,0.292-2.128-0.292-2.98c-0.585-0.849-1.877-1.236-2.698-0.612c0.941-1.173,1.443-2.688,1.387-4.192 c-0.023-0.623-0.147-1.263-0.503-1.773c-0.357-0.511-0.985-0.866-1.602-0.762c-0.7,0.12-1.2,0.766-1.88,0.976 c-0.289-1.192-0.181-2.72-1.126-3.577c-0.863-0.784-2.231-0.648-3.294-0.172c-1.065,0.474-1.996,1.23-3.097,1.611 c0.351-1.159-0.902-2.323-2.114-2.289c-1.21,0.035-2.247,0.88-3.032,1.803c-4.921,5.803-3.359,15.217-8.314,20.992 c1.04-5.861,0.523-12.095-2.188-17.21c-1.031-1.945-2.373-3.76-2.967-5.88c-1.011-3.609,0.304-7.405,0.623-11.14 c0.715-8.344-4.127-16.891-11.653-20.565c-2.923-1.428-6.145-2.155-9.376-2.543c-6.29-0.757-13.92,0.494-16.638,6.216 c-1.186-5.338-2.135-10.715-3.697-15.905c-0.286-0.957-0.849-2.099-1.845-2.069c-0.373,0.012-0.718,0.201-1.029,0.405 c-2.244,1.484-3.532,4.868-1.774,6.905c-1.794,0.361-3.376,1.646-4.103,3.328c-0.724,1.681-0.571,3.713,0.397,5.267 c-1.816-0.089-3.08,1.86-3.381,3.653c-0.302,1.794-0.067,3.704-0.787,5.374c-1.129-0.638-1.146-1.1-1.159-1.563 c-2.019,1.909-5.856,1.39-7.209,3.818c-0.345,0.62-0.455,1.341-0.704,2.004c-0.821,2.176-2.991,3.468-4.736,5.007 c-2.766,2.439-4.662,5.846-5.276,9.483c-0.768,4.547,0.422,9.17,1.599,13.63c-5.409-2.998-9.278-4.189-13.143-5.38 c-8.363-4.315-15.835-5.385-22.932-4.165c-1.366-4.479-1.85-9.225-1.419-13.887c0.141-1.516,0.316-3.237-0.7-4.371 c-0.632-0.707-1.598-1.016-2.315-1.634c-3.287-2.837,0.234-10.009-3.724-11.794c2.991-8.168-1.041-18.016-8.459-22.563 s-17.371-3.984-24.805,0.535c-4.26,2.589-8.052,7.212-7.101,12.107c0.236,1.215,0.756,2.43,0.518,3.644 c-0.186,0.946-0.807,1.736-1.351,2.531c-2.232,3.257-3.425,7.215-3.364,11.164c-8.239,0.283-13.913,5.33-14.46,11.309 c-3.755-0.872-7.943,0.493-10.464,3.411c-1.346,1.558-2.208,3.467-3.296,5.217c-2.158,3.471-5.224,6.344-7.12,9.968 c-2.698,5.156-2.744,11.242-2.729,17.064c-6.941-2.533-8.867-9.55-9.823-16.24c-0.544-3.813-0.857-7.659-0.934-11.51 c-0.071-3.601,0.003-7.437-1.898-10.499c-1.22-1.965-3.133-3.387-4.603-5.17c-1.537-1.86-2.572-4.088-4.053-5.995 c-2.794-3.597-7.026-5.84-11.384-7.167c-2.58-0.786-5.35-1.286-7.96-0.618c-2.275,0.585-4.23,2.001-6.124,3.388 c-4.714,3.453-9.532,7.014-12.732,11.903c-3.394,5.184-4.693,11.44-5.577,17.572c-7.503-2.63-15.705,1.428-20.38,7.691 c-4.674,6.264-6.335,14.304-6.628,22.114c-0.091,2.429-0.071,4.909-0.818,7.221c-0.86,2.666-2.67,4.901-4.009,7.36 c-2.797,5.138-3.482,11.386-1.865,17.008c0.228,0.792,0.493,1.668,0.128,2.404c-0.358,0.721-1.189,1.046-1.948,1.309 c-3.997,1.389-7.996,2.776-11.993,4.165c-2.59,0.899-5.235,1.829-7.375,3.544c-2.138,1.714-3.71,4.395-3.356,7.115 c-2.544-6.908-3.576-12.911-7.809-16.476c-2.874-2.42-6.737-3.26-9.993-5.135c-2.312-1.334-4.294-3.177-6.554-4.602 c-5.858-3.69-13.293-4.387-18.904-8.443c-3.051-6.606-1.567-13.237,2.379-17.892c1.118-1.319,2.415-2.482,3.464-3.855 c2.982-3.908,3.66-9.072,3.911-13.981c0.221-4.295,0.184-8.669-0.997-12.802c-2.513-8.793-10.538-15.744-19.6-16.978 c-4.006-0.547-8.093-0.057-12.031,0.861c-3.461,0.807-6.913,1.981-9.733,4.146c-5.373,4.123-7.644,11.259-7.779,18.029 c-2.968,2.25-4.091,6.057-3.071,9.302c0.278,0.886,0.703,1.74,0.786,2.666c0.153,1.667-0.812,3.208-1.271,4.819 c-0.966,3.396,0.343,7.044-0.116,10.546c-0.287,2.178-1.248,4.221-1.56,6.396c-0.57,3.953,1.043,7.862,2.618,11.534 c-7.673,0.588-14.177,3.11-19.453,7.228c-0.931-0.673-0.727-2.066-0.689-3.423c0.039-1.356-0.15-2.843-1.123-3.787 c-0.973-0.946-2.935-0.867-3.409,0.404c0.053-0.712,0.095-1.466-0.239-2.096c-0.335-0.63-1.197-1.034-1.786-0.632 c-0.224,0.151-0.372,0.389-0.506,0.624c-0.694,1.201-1.235,2.49-1.606,3.826c0.054-1.129-1.616-1.644-2.542-0.993 c-0.925,0.65-1.22,1.869-1.401,2.986c-0.257,1.576-0.425,3.168-0.503,4.764c-0.556-0.745-1.835-0.458-2.367,0.302 c-0.532,0.76-0.535,1.758-0.517,2.685c0.076,3.904,0.154,7.807,0.239,11.709c-4.381,2.796-5.788,7.655-6.16,12.223 c-0.372,4.569,0.051,9.231-0.997,13.695c-0.611,2.602-1.711,5.078-2.231,7.701c-1.049,5.274,0.432,10.995,3.908,15.098 c0.682,0.807,1.46,1.593,1.747,2.609c0.264,0.929,0.08,1.919-0.088,2.87C-4.445,494.456-4.778,500.913-4.314,507.31z"/>
    </g>
  </g>
</svg>