<?xml version="1.0" encoding="utf-8"?>
<svg xmlns="http://www.w3.org/2000/svg" viewBox="0 0 500 500">
  <g id="BACKGROUND" transform="matrix(0.669975, 0, 0, 0.670537, -2.654648, 167.654663)" style=""/>
  <g id="OBJECTS" transform="matrix(0.669975, 0, 0, 0.670537, -2.654648, 167.654663)" style="">
    <path style="fill:#2B2B2B;" d="M59.609,140.308c0,0,15.567,2.257,25.065-7.963s20.81-19.326,41.047-19.729 s31.865-19.308,48.605-24.182c16.018-4.663,25.956,2.415,41.91-1.73l0.039-0.717c0.062-1.183,1.06-2.093,2.255-2.023 c1.184,0.065,2.089,1.074,2.023,2.255l-12.673,231.79c-0.053,0.972-0.743,1.756-1.642,1.97c-0.194,0.046-0.401,0.066-0.613,0.053 c-1.184-0.065-2.089-1.074-2.023-2.255l6.462-118.202c-5.498-2.328-20.563-7.153-31.951-5.296 c-14.679,2.394-24.691-11.796-34.811-16.235c-10.119-4.44-23.323,6-43.49,9.481c-20.166,3.48-33.41,12.825-33.41,12.825 C53.002,167.299,59.609,140.308,59.609,140.308z"/>
    <path style="fill:#2B2B2B;" d="M679.793,125.954c28.417,8.371,41.012,8.097,55.045,14.941c0.4-0.812,1.355-1.196,2.201-0.843 c0.887,0.367,1.305,1.381,0.935,2.264l-66.705,160.562c-0.366,0.883-1.381,1.301-2.262,0.934c-0.381-0.157-0.674-0.435-0.856-0.77 c-0.242-0.444-0.289-0.99-0.079-1.495l43.074-103.682c-22.402-0.475-38.194-14.758-62.978-15.441 c-25.469-0.702-30.516,3.181-30.516,3.181s-15.846-25.304-4.338-54.947C613.314,130.659,645.822,115.947,679.793,125.954z"/>
    <g>
      <defs>
        <rect id="SVGID_1_" width="750" height="500"/>
      </defs>
      <clipPath id="SVGID_00000182491449078101660310000000747308814869566879_">
        <rect width="750" height="500" style="overflow: visible;"/>
      </clipPath>
      <path style="clip-path:url(#SVGID_00000182491449078101660310000000747308814869566879_);fill:#2B2B2B;" d="M760.323,504.491 c1.088-32.929-1.35-132.975-7.259-165.389c2.097-2.024,5.859-5.171,7.454-9.242c1.595-4.072,0.971-8.938-1.6-12.475 c-1.495-2.06-3.554-3.635-5.609-5.139c-6.456-4.721-13.201-9.045-20.187-12.944c-0.734-2.646-0.163-3.68-0.256-4.76 c-0.144-1.718-2.061-2.907-3.768-2.677c-0.166,0.022-0.343,0.054-0.494-0.017c-0.227-0.107-0.298-0.388-0.369-0.629 c-0.571-1.923-3.076-2.981-4.853-2.05c0.169-1.346-1.184-2.492-2.534-2.62c-1.35-0.129-2.654,0.461-3.882,1.038 c-0.826-1.006-1.243-1.751-1.861-2.319c-0.618-0.566-1.48-0.933-2.298-0.747c-0.792,0.18-1.383,0.821-1.921,1.431 c-1.122,1.271-2.274,2.593-2.795,4.209c-0.52,1.616-0.241,3.615,1.111,4.64c0.208,0.157,0.444,0.298,0.56,0.534 c0.213,0.435-0.091,0.93-0.338,1.347c-0.511,0.863-0.818,1.884-0.643,2.87c0.301,1.713,1.896,2.843,3.36,3.784 c-4.091,0.742-8.162,2.021-12.009,3.784c-0.477-6.92-5.601-12.681-6.441-19.569c-0.972-7.98-5.035-15.405-11.61-18.267 c-2.952-1.285-6.286-1.361-9.492-1.08c-4.152,0.368-8.323,1.332-11.909,3.456c-3.587,2.126-6.543,5.517-7.533,9.568 c-1.454,5.961,1.44,12.084,1.578,18.219c-3.452-0.214-6.112,0.514-8.528,1.729c-0.706,0.354-1.425,0.759-2.215,0.774 c-1.192,0.025-2.193-0.824-3.158-1.521c-3.393-2.452-7.779-3.481-11.907-2.797c-5.764-5.313-11.222-9.683-17.775-10.875 c-1.47-0.267-2.971-0.366-4.403-0.787c-1.69-0.493-3.219-1.412-4.82-2.145c-6.025-2.758-12.883-2.829-19.509-2.85 c0.716-3.163,0.824-5.533,0.933-7.901c0.03-0.677,0.067-1.377,0.372-1.979c0.265-0.521,0.708-0.925,1.1-1.358 c2.536-2.798,2.994-7.276,1.079-10.529c-0.357-0.605-0.791-1.181-0.989-1.856c-0.206-0.717-0.13-1.479-0.082-2.224 c0.418-6.712-2.011-13.555-6.57-18.5c1.834-3.478,2.403-7.605,1.577-11.446c2.909-9.115,5.1-17.581,7.116-26.074 c1.294-5.455,2.516-11.177,1.124-16.609c-1.305-11.854-4.521-22.546-7.954-33.073c-0.619-1.903-1.254-3.847-1.215-5.848 c0.053-2.789,1.414-5.584,0.691-8.28c-0.495-1.838-1.88-3.279-3.214-4.636c-0.362-0.368-0.762-0.756-1.273-0.824 c-0.618-0.082-1.245,0.331-1.844,0.163c-0.612-0.171-0.948-0.878-1.554-1.069c-1.018-0.318-1.997,0.986-3.031,0.726 c-0.256-0.065-0.478-0.222-0.723-0.321c-0.937-0.38-1.98,0.115-2.87,0.598c-0.764-0.747-1.965-0.756-2.674-0.211 c-0.708,0.545-1.037,1.44-1.299,2.295c-0.712,2.326-1.192,4.749-1.107,7.181c0.017,0.478,0.062,0.978,0.32,1.381 c0.327,0.512,0.928,0.768,1.405,1.147c0.849,0.672,1.294,1.72,1.966,2.567c0.951,1.195,2.323,1.962,3.661,2.699 c2.939,3.473,4.041,7.572,4.44,11.618c0.399,4.044,0.157,8.123,0.296,12.185c0.307,8.857,2.388,18.019-0.543,26.381 c-1.94,5.531-5.991,10.364-6.646,16.19c-2.758,0.593-4.527,2.464-5.598,4.352c-1.069,1.889-1.89,4.054-3.661,5.305 c-2.021,1.425-4.988,1.428-6.506,3.379c-0.931,1.195-1.08,2.879-2.073,4.024c-0.529,0.61-1.254,1.013-1.872,1.535 c-1.032,0.874-1.754,2.103-2.019,3.43c-1.435-0.661-1.96-1.599-2.485-2.533c-0.129-0.231-0.262-0.483-0.228-0.745 c0.029-0.231,0.185-0.424,0.327-0.608c1.568-2.041,2.261-4.83,1.461-7.276c-0.802-2.444-3.242-4.361-5.811-4.217 c-0.012-6.411-4.845-11.632-10.614-12.84c-5.769-1.207-12.023,1.375-15.684,5.992c-3.234,4.079-4.46,10.065-1.892,14.592 c0.775,1.367,1.855,2.558,2.482,3.998c0.866,1.985,0.79,4.238,1.237,6.357c0.587,2.772,2.114,5.336,4.27,7.173 c-2.258-0.521-3.999-1.473-4.883-0.376c-0.587,0.729-0.231,1.802,0.147,2.655c0.756,1.704,1.51,3.407,2.264,5.108 c0.191,0.427,0.383,0.882,0.313,1.341c-0.098,0.647-0.669,1.097-1.172,1.515c-5.451,4.535-6.737,12.655-4.997,19.527 c1.74,6.872,5.961,12.809,10.097,18.565c-2.375,2.528-4.096,4.508-6.383,4.54c-0.649,0.009-1.313-0.147-1.938,0.026 c-1.186,0.326-1.81,1.692-2.95,2.153c-1.603,0.647-3.237-0.722-4.868-1.298c-1.582-0.559-3.422-0.329-4.819,0.602 c0.753-1.948,1.239-4.984,1.31-7.07c0.047-1.384-0.068-2.807-0.649-4.065c-0.582-1.257-1.695-2.328-3.057-2.575 c-0.21-4.915-1.484-10.041-4.833-13.734c-3.202-3.531-8.177-5.362-12.902-4.746c-4.726,0.615-9.067,3.658-11.257,7.89 c-2.092,4.041-2.218,8.797-2.01,13.344c-0.965,0.888-1.659,1.915-1.803,2.944c-0.144,1.03,0.143,2.066,0.427,3.067 c-1.349-1.864-2.418-3.849-3.487-5.832c-0.453-0.843-0.909-1.689-1.515-2.431c-0.372-0.456-0.799-0.871-1.148-1.347 c-0.447-0.608-0.757-1.308-1.096-1.983c-2.606-5.196-7.248-9.334-12.708-11.326c-3.903-1.425-8.179-1.794-11.89-3.663 c1.162-4.082,1.661-8.676,1.626-13.17c-0.031-3.688-0.402-7.37-1.108-10.988c-0.414-2.115-0.959-4.249-2.114-6.068 c-2.236-3.517-6.487-5.344-10.642-5.674c-3.095-0.245-6.36,0.279-8.873,2.101c-1.723,1.251-2.992,3.034-3.983,4.918 c-2.185,4.159-3.123,8.967-2.657,13.642c-0.753,0.815-1.265,1.043-1.664,1.315c-1.127,0.767-1.588,2.261-1.429,3.613 c0.158,1.352,0.836,2.587,1.597,3.717c0.172,0.255,0.351,0.512,0.436,0.806c0.076,0.27,0.07,0.557,0.065,0.836 c-0.028,1.181-0.057,2.364-0.085,3.545c-7.966-0.56-14.49,3.843-21.431,5.384c-2.581,0.573-5.314,0.775-7.619,2.067 c-5.933,3.331-6.376,12.067-11.544,16.491c-1.481,1.268-3.312,2.142-4.541,3.653c-2.37,2.913-1.96,7.507-4.628,10.15 c-1.161,1.151-2.77,1.769-3.922,2.93c-2.479,2.5-2.108,6.556-1.564,10.034c-2.142-1.125-3.739-3.823-6.147-4.555 c-1.055-0.321-2.195-0.241-3.265-0.5c-2.871-0.7-4.771-3.691-7.658-4.325c-0.154-3.635,0.241-6.982,0.534-10.338 c1.443-0.175,2.693-1.072,3.619-2.073c1.076-1.161,1.937-2.547,2.317-4.083c0.38-1.535,0.245-3.225-0.537-4.599 c1.554-2.977,2.325-6.056,1.844-9.054c-0.48-3-2.402-5.884-5.263-6.908c-0.419-0.149-0.855-0.261-1.245-0.475 c-0.515-0.287-0.916-0.739-1.35-1.138c-1.907-1.752-4.665-2.53-7.208-2.03c-1.602,0.314-3.124,1.1-4.757,1.085 c-1.372-0.014-2.669-0.596-4.018-0.847c-3.844-0.717-7.848,1.418-10.089,4.623c-2.241,3.203-2.932,7.277-2.756,11.184 c-1.144,1.012-2.046,1.934-2.404,3.045c-0.615,1.903,0.348,3.956,1.543,5.561c1.194,1.603,2.676,3.062,3.334,4.952 c0.722,2.069,0.346,4.349,0.655,6.517c0.163-0.16-0.251,0.93-0.251,0.93c-1.732,1.436-4.388,0.995-6.352,2.094 c-1.214,0.681-2.12,1.929-3.467,2.278c-0.647,0.169-1.33,0.107-1.998,0.061c-3.163-0.214-6.352-0.042-9.473,0.512 c1.136-1.189,2.637-2.943,3.059-4.957c0.422-2.014-0.248-4.225-1.72-5.663c1.374-5.755-0.7-11.907-4.215-16.667 c-1.338-1.81-2.907-3.489-4.83-4.657c-4.53-2.749-10.468-2.252-15.251,0.031c-0.537-7.016-0.064-14.638,0.823-22.214 c0.362-3.093,0.906-6.419,3.123-8.607c1.97-1.942,4.864-2.579,7.162-4.116c1.969-1.316,3.473-3.312,4.2-5.566 c0.261-0.809,0.439-1.681,0.979-2.339c0.802-0.978,2.24-1.276,2.992-2.291c0.821-1.108,0.461-2.853-0.66-3.655 c-1.121-0.801-2.781-0.644-3.829,0.251c0.321-2.153,0.408-4.64-1.347-5.426c-0.649-0.29-1.391-0.242-2.098-0.189l-7.706,0.582 c-0.655,0.05-1.327,0.105-1.92,0.388c-1.132,0.546-1.721,1.796-2.148,2.978c-1.043,2.882-1.642,5.901-2.455,8.854 c-3.408,12.369-10.494,23.331-16.415,34.712c-1.904,3.663-3.709,7.425-4.6,11.454c-0.709,3.208-0.823,6.514-0.933,9.798 c-0.11,3.279-0.222,6.559-0.331,9.838c-2.137-1.571-3.376-2.98-4.363-4.547c-0.508-0.805-0.95-1.651-1.543-2.395 c-1.305-1.637-3.233-2.634-5.1-3.583c-1.069-3.431-4.799-4.923-5.173-7.9c-0.151-1.197,0.292-2.465-0.143-3.59 c-0.383-0.993-1.391-1.681-1.63-2.717c-0.31-1.335,0.773-2.742,0.344-4.048c-0.152-0.464-0.484-0.858-0.605-1.333 c-0.202-0.795,0.23-1.595,0.563-2.347c1.468-3.299,1.117-7.344-0.896-10.341c-2.014-3-5.624-4.853-9.234-4.743 c-0.81-4.952-5.289-7.536-9.726-7.549c-4.437-0.014-8.697,2.295-11.603,5.649c-2.548,2.944-4.152,6.694-4.518,10.569 c-0.419,4.426,0.711,9.057-0.765,13.251c-0.875,0.385-1.79,1.42-2.805,1.81c-1.176,0.452-2.477,0.009-3.715-0.219 c-3.368-0.616-6.795,0.413-10.063,1.431c-0.992-0.644-1.346-2.081-1.512-3.284c-0.068-0.484-0.135-0.984-0.028-1.462 c0.079-0.348,0.245-0.666,0.402-0.986c1.165-2.368,1.864-4.965,2.042-7.6c3.31-1.093,5.703-4.723,5.272-8.216 c-0.236-1.911-1.198-3.66-2.325-5.222c1.062-4.527,2.08-9.329,0.655-13.757c-1.628-5.063-6.256-8.702-11.257-10.513 c-1.799-0.65-3.68-1.107-5.59-1.183c-6.425-0.255-12.604,4.15-15.026,10.107c-1.755,4.311-1.678,9.334,0.206,13.591 c-2.699,0.574-4.114,3.005-4.352,5.252c-0.445,4.221,2.174,8.581,6.109,10.172c0.203,3.681,0.323,7.259,0.442,10.836 c-2.159-0.214-3.725-0.06-4.991,0.652c-0.309,0.174-0.618,0.386-0.971,0.421c-0.419,0.039-0.813-0.177-1.204-0.332 c-1.563-0.624-3.472-0.262-4.699,0.888c-1.526-4.847-2.772-8.964-6.116-10.862c-2.334-1.325-5.179-1.245-7.799-1.834 c-1.187-0.266-2.348-0.678-3.56-0.792c-1.654-0.157-3.304,0.248-4.915,0.65c-2.195,0.546-4.437,1.114-6.324,2.361 c-3.272,2.162-4.962,5.986-6.483,9.599c-1.768-0.475-2.969-0.865-4.17-1.254c1.516-2.595,1.47-5.235,0.171-7.079 c-0.315-0.449-0.701-0.864-0.846-1.391c-0.116-0.428-0.059-0.882-0.002-1.322c0.535-4.058,1.024-8.241-0.02-12.2 c-1.394-5.275-5.64-9.703-10.853-11.315c-5.212-1.613-11.218-0.356-15.346,3.211c-5.042,4.356-6.883,11.263-8.466,17.736 c-1.333,0.706-2.165,1.138-2.8,1.769c-1.364,1.36-1.69,3.461-1.541,5.382c0.126,1.605,0.532,3.186,1.195,4.654 c0.411,0.908,0.926,1.794,1.06,2.783c0.13,0.987-0.247,2.137-1.165,2.525c-0.337,0.141-0.711,0.168-1.069,0.244 c-1.346,0.279-2.463,1.24-3.793,1.58c-1.653,0.422-3.376-0.16-5.074-0.317c-1.699-0.155-3.759,0.385-4.279,2.01 c-0.911-0.338-1.822-0.675-2.731-1.015c-2.944-2.668-6.358-2.195-9.079-3.29c-2.407-0.97-4.207-3.155-6.684-3.934 c-1.496-0.47-3.146-0.391-4.58-1.027c-1.037-0.458-1.881-1.256-2.702-2.041c-3.033-2.899-6.05-5.815-9.05-8.75 c3.031-7.85,7.305-15.14,11.581-22.426c2.128-3.627,4.288-7.296,7.266-10.262c2.033-2.025,4.535-3.865,5.326-6.624 c8.64-2.264,15.593-6.959,21.251-12.59c0.582-0.579,1.172-1.183,1.917-1.527c0.812-0.377,1.847-0.486,2.317-1.248 c0.483-0.782,0.003-1.897-0.816-2.309c-0.821-0.414-1.83-0.255-2.656,0.147c0.261-1.788-0.517-3.925-1.848-5.389 c-1.332-1.467-3.136-2.396-4.9-3.295c-1.797-0.917-3.729-1.861-5.73-1.619c-0.826,0.099-1.628,0.399-2.458,0.388 c-0.95-0.012-1.889-0.433-2.825-0.269c-0.986,0.171-1.735,0.944-2.589,1.465c-1.417,0.866-3.144,1.043-4.678,1.679 c-3.034,1.259-5.047,4.204-6.298,7.242c-1.253,3.037-1.917,6.296-3.241,9.303c-5.972,3.56-9.903,8.055-13.207,12.76 c-3.303,4.706-6.146,9.759-9.916,14.101c-2.154,2.48-4.591,4.704-6.726,7.201c-2.62,3.059-4.771,6.521-6.355,10.224 c-1.735,4.055-2.764,8.786-0.973,12.813c0.764,1.72,1.987,3.185,3.208,4.614c2.778,3.256,5.629,6.472,8.898,9.233 c4.147,3.501,8.908,6.223,13.023,9.764c4.554,3.92,8.258,8.823,10.785,14.275C5.866,336.599-6.606,504.491-6.606,504.491H760.323z "/>
    </g>
    <g>
      <defs>
        <rect id="SVGID_00000108989147848799195790000005883262000382117786_" x="0.261" y="0.261" width="750" height="500"/>
      </defs>
      <clipPath id="SVGID_00000079480856971288166400000007394279067471204263_">
        <rect x="0.261" y="0.261" width="750" height="500" style="overflow: visible;"/>
      </clipPath>
      <path style="clip-path:url(#SVGID_00000079480856971288166400000007394279067471204263_);" d="M154.489,452.17 c-1.525-6.452-3.432-12.805-5.338-19.155c-1.706-4.883-2.262-8.826-3.777-12.448c-2.544-6.086-7.849-10.954-14.132-12.966 c-6.7-6.8-13.042-13.005-19.649-18.915c-0.005-1.345,0.487-2.846,0.979-4.345c0.639-1.952,1.286-3.951,1.216-6.002 c-0.07-2.051-1.003-4.198-2.819-5.153c0.721-4.259,0.102-8.334-0.804-12.237c-1.474-6.35-3.822-12.709-8.285-17.459 c-4.891-5.202-12-8.008-19.124-8.486c-7.123-0.478-14.265,1.223-20.851,3.982c-3.805,1.595-7.768,3.878-9.167,7.759 c-0.949,2.63-0.52,5.607,0.623,8.158c1.142,2.551,2.944,4.746,4.804,6.835c1.024,9.83-4.5,19.365-2.788,28.912 c0.91,5.077,3.807,9.629,4.737,14.704c-0.212,0.421-0.334,0.966-0.455,1.512c-1.322-0.186-2.273,0.248-2.984,0.781 c-0.711,0.534-1.395,1.2-2.273,1.335c-1.437,0.22-2.647-1.042-4.041-1.452c-3.512-1.033-6.696,3.441-10.315,2.89 c-1.138-0.172-2.136-0.831-3.217-1.226c-1.778-0.646-3.814-0.544-5.517,0.278c-0.817,0.394-1.557,0.943-2.396,1.291 c-1.76,0.73-3.748,0.502-5.651,0.392c-3.13-0.181-6.28-0.007-9.372,0.52c-2.115,0.361-4.237,0.899-6.076,2.004 c-0.898,0.539-1.738,1.218-2.748,1.498c-1.206,0.334-2.624,0.096-3.605,0.872c-0.69,0.545-1.002,1.49-1.748,1.955 c-1.131,0.706-2.567-0.009-3.888-0.186c-1.875-0.25-3.855,0.769-4.739,2.439c-0.528-5.303-1.79-9.43-2.574-13.629 c-1.799-9.62-2.812-16.644-1.803-28.691c0.187-2.226,1.397-5.217,2.754-6.999c0.824-1.083,1.941-1.899,2.937-2.828 c3.461-3.226,5.469-7.958,5.384-12.689c-0.044-2.447-0.586-5.062,0.559-7.225c0.471-0.889,1.226-1.894,0.75-2.78 c-0.313-0.582-1.05-0.798-1.713-0.8c-2.349-0.005-4.223,1.866-5.806,3.602c-2.585-1.579-4.48-4.018-3.344-6.159 c0.202-0.379,0.491-0.714,0.627-1.121c0.4-1.19-0.63-2.37-1.67-3.074c-1.813-1.229-4.011-1.978-6.19-1.767 c-2.179,0.211-4.303,1.483-5.239,3.463c-0.489,1.035-0.785,2.368-1.859,2.77c-0.518,0.196-1.118,0.112-1.622,0.343 c-1.591,0.726-0.717,3.409-1.926,4.671c-0.343,0.357-0.821,0.554-1.203,0.87c-1.314,1.082-1.15,3.107-0.828,4.777 c0.853,4.406,1.996,8.756,3.418,13.012c-5.58,16.614-7.024,35.463-7.142,53.931c-0.042,6.701,0.104,13.55,2.384,19.85 c2.28,6.301,7.082,12.054,13.557,13.776c0.726,4.693,1.005,6.882,1.866,8.877c0.889,2.058,2.352,3.808,3.794,5.524 c1.411,1.679,2.978,3.458,5.118,3.933c1.954,0.435,3.99-0.329,5.676-1.409c1.685-1.078,3.153-2.475,4.86-3.518 c2.191-1.342,4.698-2.061,7.184-2.705c-0.48,1.925-0.847,4.698-2.01,7.185c-0.497,1.064-1.14,2.071-1.465,3.201 c-0.655,2.269,0.046,4.713-0.257,7.056c-0.326,2.508-1.776,4.739-2.294,7.214c-0.929,4.443,1.203,9.169,1.244,13.595h137.045 c-0.427-4.188-0.173-8.448,0.751-12.556c0.809-3.6,2.13-7.114,2.374-10.796c0.277-4.215-0.877-8.412-0.763-12.635 c3.103,0.008,6.695,0.056,9.12-2.083c1.632-1.438,2.412-3.654,2.537-5.825C155.45,456.443,154.989,454.285,154.489,452.17z"/>
      <path style="clip-path:url(#SVGID_00000079480856971288166400000007394279067471204263_);" d="M614.708,486.364 c1.345,0.51,2.153-1.753,1.359-2.951c-0.795-1.198-2.27-1.84-2.983-3.088c-0.463-0.811-0.546-1.775-0.628-2.706 c-0.557-6.333-1.565-12.628-3.011-18.819c-1.414-6.048-3.25-12.029-3.889-18.207c-0.543-5.266-0.205-10.58,0.133-15.863 c1.058-16.525,2.121-33.088,4.933-49.406c0.763-4.423,1.655-8.835,1.987-13.312c0.197-2.664,0.196-5.342,0.507-7.996 c0.282-2.398,0.819-4.765,0.984-7.174c0.474-6.961-2.198-13.804-6.641-21.639c0.635-9.736-1.137-19.589-4.869-28.603 c-2.467-5.956-5.771-11.544-9.552-16.766c-1.326-1.832-2.737-3.67-3.403-5.831c-0.909-2.949-0.326-6.127,0.254-9.299 c1.049-4.249-0.268-8.685-1.573-12.862c-0.102-0.324-0.212-0.663-0.465-0.889c-0.205-0.184-0.481-0.271-0.698-0.441 c-0.286-0.228-0.444-0.582-0.713-0.829c-0.62-0.568-1.693-0.366-2.244,0.267c-0.551,0.634-0.659,1.553-0.523,2.382 c-1.409,0.449-2.415,1.93-2.667,3.774c-0.671-0.754-1.974-0.246-2.583,0.558c-0.608,0.805-0.904,1.848-1.662,2.515 c-0.503,0.443-1.155,0.669-1.748,0.982c-1.172,0.619-2.118,1.582-3.044,2.531c-1.233,1.263-2.563,2.814-2.271,4.554 c0.162,0.961,0.798,1.76,1.365,2.552c2.924,4.09,4.406,9.009,5.134,14.658c-1.486-0.633-3.237-0.616-4.711,0.047 c-0.503,0.227-1.023,0.533-1.57,0.448c-0.395-0.062-0.725-0.32-1.058-0.542c-1.506-1.001-3.423-1.364-5.191-0.981 c-0.972,0.211-1.895,0.635-2.88,0.779c-1.078,0.158-2.183-0.026-3.262,0.12c-1.37,0.186-2.656,0.924-3.507,2.013 c0.848-4.67,0.751-10.339,1.121-15.071c0.369-4.731,1.544-9.651,4.783-13.119c0.987-1.056,2.154-1.965,2.919-3.19 c0.767-1.225,1.034-2.927-0.043-4.663c-0.087-0.812,0.158-1.646-0.021-2.443c-0.122-0.543-0.431-1.023-0.746-1.482 c-0.208-0.301-0.431-0.608-0.747-0.791c-0.46-0.265-1.029-0.223-1.554-0.158c-0.462,0.057-0.941,0.132-1.325,0.394 c-0.129,0.086-0.244,0.193-0.615,0.387c-0.145-0.52-0.292-1.04-0.438-1.56c-0.044-0.16-0.093-0.325-0.204-0.448 c-0.129-0.142-0.323-0.204-0.512-0.238c-0.947-0.174-1.976,0.239-2.521,1.047c0.52-1.597,1.047-3.255,0.854-4.924 c-0.067-0.588-0.24-1.192-0.652-1.615c-0.413-0.424-1.115-0.606-1.614-0.288c-0.367,0.234-0.545,0.665-0.703,1.07 c-0.267,0.686-0.534,1.372-0.842,2.015c0.25-1.902,0.496-3.866-0.02-5.714c-0.176-0.63-0.495-1.293-1.101-1.537 c-0.587-0.237-1.293,0.017-1.711,0.491c-0.419,0.475-0.589,1.125-0.729,1.979c-0.227-0.572-0.249-1.201-0.323-1.812 c-0.073-0.612-0.219-1.248-0.634-1.703c-0.416-0.455-1.175-0.644-1.657-0.261c-0.257,0.203-0.391,0.521-0.485,0.834 c-0.738,2.455,0.391,5.057,0.42,7.621c0.015,1.333-0.269,2.679-0.025,3.989c0.156,0.835,0.522,1.621,0.668,2.459 c0.218,1.258-0.074,2.543-0.378,3.783c-0.94,3.836-2.006,7.642-3.225,11.701c-4.513,10.822-9.043,21.699-11.811,33.093 c-1.486,6.119-2.455,12.355-3.842,18.601c-1.523,2.758-3.047,5.516-4.569,8.275c-0.513,0.927-1.027,1.857-1.639,2.721 c-0.682,0.961-1.48,1.833-2.2,2.765c-1.976,2.553-3.336,5.518-4.68,8.453c-3.419,7.468-6.916,15.344-6.301,23.536 c0.29,3.848,1.487,7.596,1.651,11.451c0.165,3.885-0.723,7.739-0.801,11.626c-0.035,1.746,0.097,3.51,0.578,5.188 c0.697,2.428,2.096,4.589,3.029,6.936c0.94,2.361,1.398,4.881,1.85,7.381c0.966,5.338,1.932,10.677,2.014,17.197 c-0.123,12.239-0.245,24.479-0.367,36.719c-0.038,3.717-0.094,7.536-1.488,10.982c-0.886,2.197-2.294,4.173-2.985,6.438 c-0.691,2.265-0.454,5.082,1.055,8.271c-0.211,7.477-0.422,14.954-0.632,22.432h105.604 C617.262,499.557,616.361,493.709,614.708,486.364z"/>
      <path style="clip-path:url(#SVGID_00000079480856971288166400000007394279067471204263_);" d="M500.037,382.215 c0.532-2.168,0.569-4.427,0.954-6.626c0.579-3.306,1.937-6.45,2.349-9.782c0.602-4.894-0.878-9.804-0.911-14.735 c-0.025-3.685,0.738-7.524-0.589-10.962c0.739-12.776,1.077-25.2-2.938-36.596c-2.02-5.739-5.087-11.04-7.869-16.45 c-6.017-11.714-10.733-24.047-15.232-36.424c1.909-3.667,2.868-8.146,1.914-12.218c-0.128-0.548-0.385-1.18-0.939-1.284 c-0.667-0.124-1.183,0.617-1.849,0.752c0.047-1.739,0.094-3.478,0.14-5.216c0.015-0.611,0.042-1.256,0.37-1.771 c0.558-0.879,1.734-1.052,2.736-1.333c1.004-0.281,2.121-1.054,1.933-2.077c-0.163-0.879-1.223-1.293-2.114-1.228 c-0.892,0.065-1.744,0.441-2.637,0.457c0.77-1.273,1.809-1.782,2.797-2.375c0.49-0.293,0.979-0.619,1.317-1.08 c0.337-0.461,0.499-1.089,0.277-1.616c-0.221-0.527-0.901-0.857-1.405-0.588c0.046-0.634,0.055-1.367-0.423-1.786 c-0.413-0.362-1.028-0.342-1.571-0.273c-3.748,0.465-7.216,2.153-10.606,3.817c-0.923-1.78-1.504-3.722-2.482-5.438 c-0.512-0.897-1.32-1.828-2.351-1.754c-0.746,0.053-1.366,0.657-1.65,1.349c-0.283,0.692-0.293,1.463-0.273,2.212 c0.13,4.791,1.339,9.482,2.542,14.124c-2.524-5.148-4.724-10.413-6.966-15.659c-0.442-1.038-1.236-2.273-2.342-2.048 c-0.469,0.094-0.842,0.45-1.117,0.84c-1.477,2.083-0.713,4.943,0.107,7.362c1.404,4.15,2.808,8.298,4.212,12.45 c-2.877-3.962-5.371-7.943-7.419-12.141c-0.6-1.232-1.509-2.694-2.875-2.558c-1.031,0.103-1.743,1.181-1.8,2.218 c-0.059,1.035,0.37,2.03,0.787,2.979c1.199,2.715,2.397,5.43,3.596,8.146c1.246,2.824,2.521,5.815,2.181,8.884 c-0.048,0.438-0.184,0.943-0.593,1.105c-0.296,0.117-0.63,0.008-0.917-0.131c-1.632-0.793-2.702-2.473-4.34-3.254 c-0.372-0.177-0.804-0.304-1.194-0.17c-0.988,0.337-0.798,1.79-0.365,2.739c1.293,2.827,3.03,5.452,5.125,7.747 c-4.769,6.342-9.362,12.418-13.954,18.493c-3.498,4.628-6.995,9.256-10.383,13.965c-2.817,3.916-5.585,7.938-7.308,12.445 c-1.891,4.949-2.45,10.284-3.392,15.495c-1.931,10.69-5.538,21.212-5.336,32.072c-2.763,2.163-2.96,4.66-3.216,6.806 c-0.615,5.143-2.582,10.026-3.545,15.116c-2.27,12.009,1.166,24.367,5.762,35.691c0.074,6.745,0.138,13.593,0.988,20.371 c0.568,4.523,1.486,9.054,1.183,13.604c-0.29,4.353-1.692,8.573-1.994,12.926c-0.281,4.033,0.39,8.064,0.983,12.065 c1.186,7.971,2.085,15.986,2.692,24.023c0.187,2.481,0.34,5.029-0.38,7.411c-0.634,2.093-1.93,4.008-2.111,6.187 c-0.183,2.18,1.548,4.762,3.675,4.249c-0.345,3.385-0.486,5.73-0.626,8.076h84.714l0.034-5.861 c3.761-3.359,6.102-8.258,6.354-13.294c0.359-7.201-3.345-14.182-2.763-21.367c0.3-3.703,1.736-7.342,1.288-11.029 c-0.211-1.734-0.833-3.39-1.191-5.1c-1.519-7.243,1.763-14.712,1.052-22.078c-0.274-2.836-1.132-5.578-1.858-8.333 c-2.373-9.012-3.343-18.392-2.864-27.698C496.158,390.023,498.997,386.456,500.037,382.215z M481.808,318.781 c-0.326,4.956-2.548,9.957-1.171,14.728c-2.18,1.364-3.461,3.451-3.808,5.7c0.78-6.624,0.419-13.684-1.861-20.072 c-0.853-2.393-2.013-4.752-3.896-6.457c-0.758-0.687-1.617-1.252-2.406-1.907c-2.698-2.242-4.508-5.485-7.46-7.383 c-0.674-0.432-1.421-0.795-2.22-0.854c-0.639-0.048-1.277,0.1-1.917,0.112c-1.966,0.039-3.831-1.191-5.786-0.979 c-1.755,0.189-3.181,1.496-4.866,2.022c-1.078,0.335-2.228,0.342-3.347,0.495c-3.794,0.523-7.296,2.864-9.228,6.172 c4.852-16.956,14.079-33.279,26.168-47.116c5.815,5.359,9.044,11.754,11.497,18.318c2.452,6.562,4.192,13.369,6.454,20 C479.874,307.169,482.196,312.87,481.808,318.781z"/>
      <path style="clip-path:url(#SVGID_00000079480856971288166400000007394279067471204263_);" d="M270.15,351.79 c-0.185-0.745-0.473-1.463-0.617-2.215c-0.464-2.429,0.54-5.251-0.933-7.238c-0.449-0.605-1.083-1.047-1.586-1.608 c-0.902-1.005-1.337-2.332-1.985-3.517c-0.648-1.185-1.676-2.331-3.022-2.44c-2.411-16.737-10.5-31.329-18.054-45.66 c-5.263-9.987-10.34-20.071-15.228-30.245c-0.496-5.216,2.006-9.1,2.811-13.39c0.036-2.276,1.005-4.45,0.269-6.414 c-0.42-1.119-1.331-1.966-2.181-2.807c-1.496-1.477-2.889-3.058-4.168-4.728c-1.271-1.66-2.511-3.479-4.396-4.387 c-1.304-0.628-2.786-0.751-4.23-0.862c-0.948-0.074-1.898-0.147-2.846-0.221c-0.622-0.048-1.247-0.096-1.869-0.056 c-0.468,0.031-0.931,0.111-1.393,0.192c-1.251,0.217-2.502,0.435-3.752,0.652c-0.516,0.07-0.907,0.175-1.171,0.423 c-0.264,0.248-0.392,0.633-0.33,0.99c0.019,0.112,0.056,0.229,0.021,0.338c-0.033,0.102-0.122,0.174-0.196,0.251 c-0.267,0.276-0.379,0.694-0.286,1.066c0.093,0.373,0.387,0.689,0.753,0.808c-1.656,0.505-3.192,0.771-4.736,0.978 c-0.618-0.827-0.807-1.528-1.325-1.962c-0.997-0.836-2.504-0.211-3.604,0.485c-3.508,2.224-6.78,5.092-8.491,8.877 c-1.155,2.554-1.538,5.385-1.718,8.181c-0.211,3.275-0.161,6.567,0.148,9.834c0.153,1.623,0.371,3.264,0.123,4.876 c-0.374,2.429-1.765,4.568-3.204,6.56c-2.624,3.633-5.52,7.06-8.412,10.484c-10.66,11.194-19.986,23.517-28.092,36.595 c-2.396,3.865-4.737,7.944-5.273,12.459c-0.292,2.459-0.034,4.947,0.274,7.404c0.709,5.645,1.679,11.258,2.908,16.814 c-0.951,1.795-1.801,3.979-2.776,6.105c-0.704,1.535-1.48,3.056-1.848,4.703c-0.369,1.646-0.286,3.474,0.639,4.885 c0.956,1.833,3.654,2.31,5.951,2.908s4.916,2.149,4.725,4.515c-0.057,0.699-0.37,1.363-0.39,2.065 c-0.017,0.578,0.167,1.14,0.336,1.694c1.058,3.469,1.608,7.068,2.155,10.652c0.939,6.154,1.878,12.308,2.817,18.461 c0.674,4.421,1.349,8.844,1.793,13.293c0.352,3.533,0.558,7.08,0.764,10.625l1.175,20.218c0.853,14.679,1.691,20.786,0.778,33.308 c-0.913,12.522-4.174,20.609-1.044,27.522h102.913c0,0,0.261-19.044-0.913-33.783c-1.174-14.739-1.531-27.047-1.531-27.047 c-0.219-6.061-0.437-12.121-0.656-18.183c-0.075-2.086-0.151-4.176,0.003-6.258c0.123-1.662,0.391-3.308,0.659-4.953 c0.619-3.792,1.237-7.584,1.855-11.377c-0.293-3.564,1.643-6.002,2.029-8.553c0.237-1.571-0.125-3.181,0.069-4.757 c0.202-1.634,0.992-3.156,1.158-4.794c0.167-1.658-0.315-3.335-0.113-4.989c0.207-1.677,1.094-3.179,1.709-4.752 c0.616-1.573,0.939-3.443,0.062-4.887c2.137-7.689,3.339-15.176,3.715-22.704C270.468,354.74,270.508,353.232,270.15,351.79z M199.481,276.255c2.188-2.919,4.376-5.838,6.564-8.758c1.46-1.948,2.928-3.909,4.014-6.087c0.78-1.562,1.353-3.218,1.91-4.872 c-0.017,1.446,0.773,2.877,2.347,4.073c0.695,3.034,1.35,6.043,2.325,9c0.365,1.104,0.721,2.22,1.141,3.306 c0.431,1.116,0.934,2.191,1.253,3.349c0.615,2.231,0.97,4.533,1.241,6.827c0.276,2.338,0.397,4.692,0.136,6.471 c-3.491-2.36-7.917-3.068-12.104-2.594c-4.188,0.474-8.177,2.05-11.941,3.945c-0.99,0.499-1.991,1.037-2.731,1.862 c-0.734,0.819-1.183,1.891-2.039,2.583c-0.616,0.498-1.388,0.753-2.08,1.139c-1.656,0.924-2.78,2.551-3.657,3.951 C188.179,291.424,193.893,283.712,199.481,276.255z M181.625,312.015c-1.189,8.047,1.847,16.068,5.06,23.542 c1.211,2.817,2.481,5.898,1.682,8.859c-1.384-0.796-2.794-1.817-4.419-1.882c-0.696-0.028-1.439,0.116-2.057-0.205 c-0.774-0.403-1.25-1.482-2.12-1.412c-0.565,0.045-0.974,0.591-1.529,0.709c-0.603,0.128-1.174-0.273-1.697-0.603 c-1.129-0.71-2.418-1.162-3.743-1.313c-1.277-2.356-2.414-4.496-3.51-7.315C174.002,325.705,178.032,318.534,181.625,312.015z"/>
      <path style="clip-path:url(#SVGID_00000079480856971288166400000007394279067471204263_);" d="M448.228,137.402 c-6.932-4.659-14.107-0.816-18.352,3.142c-7.037-4.566-23.801-14.503-46.633-21.89c-22.711-7.347-42.023-9.131-50.473-9.564 c-1.133-5.688-4.703-12.969-13.023-13.253c-6.148-0.213-11.772,8.776-14.325,22.895c-4.118,22.769-0.1,63.458,37.202,82.867 c2.68,10.752,0.121,18.515-1.723,22.294c-0.068-0.043-0.128-0.098-0.201-0.133c-0.689-0.325-1.554-0.237-2.162,0.219 c-0.567,0.426-0.878,1.098-1.186,1.735c-0.045,0.092-0.094,0.184-0.141,0.276c-0.777-0.169-1.723-0.367-2.802-0.579 c0.023-0.057,0.045-0.117,0.067-0.173c0.41-1.045,0.56-2.319-0.109-3.221c-0.654-0.882-1.941-1.12-2.98-0.767 c-1.04,0.353-1.85,1.186-2.447,2.107c-0.212,0.326-0.398,0.666-0.578,1.01c-0.582-0.086-1.169-0.167-1.761-0.244 c0.196-0.632,0.491-1.237,0.665-1.877c0.22-0.81,0.194-1.781-0.411-2.365c-0.341-0.329-0.816-0.482-1.285-0.545 c-0.536-0.07-1.092-0.033-1.593,0.17c-1.047,0.424-1.691,1.495-2.047,2.566c-0.17,0.512-0.292,1.04-0.422,1.564 c-0.655-0.036-1.294-0.055-1.916-0.062c-0.351-0.442-0.753-0.874-1.281-1.075c-1.096-0.415-2.342,0.343-2.921,1.364 c-1.883,0.345-3.22,1.02-3.597,2.183c-0.488,1.508,0.433,3.111,2.238,4.723c-0.11,0.686-0.21,1.374-0.266,2.067 c-0.15,1.856,0.004,3.797,0.88,5.441c-6.137,12.521-12.979,24.251-20.748,35.332c-2.442,3.665-4.838,7.289-6.732,11.183 c-3.865,7.946-5.527,16.819-5.96,25.646c-0.433,8.826,0.324,17.663,1.079,26.467c-1.509,4.007-1.929,7.531-2.188,11.014 c-0.205,2.763-0.312,5.58,0.376,8.265c0.568,2.215,1.661,4.269,2.204,6.489c0.436,1.789,0.505,3.643,0.702,5.474 c0.69,6.42,2.963,12.598,3.578,19.026c0.423,4.427,0.056,8.926,0.837,13.304c0.428,2.402,1.199,4.747,1.415,7.178 c0.231,2.608-0.117,5.474,1.387,7.617c-3.641,21.88-6.922,43.001-9.056,64.256c-0.642,6.396-1.181,12.81-2.208,19.155 c-1.215,7.501-3.106,14.873-4.995,22.232c-0.012,0.365,2.126,1.049,2.126,1.049c-1.467,1.523-1.067,3.981-1.581,6.032 c-0.45,1.795-1.634,3.32-2.232,5.072c-0.58,1.7-0.583,3.528-0.512,5.331h106.35c0.304-2.648,0.602-5.376-0.133-7.938 c-0.287-1.001-0.725-1.952-1.005-2.954c-0.633-2.273-0.418-4.684-0.198-7.033c0.138-1.364,0.988-1.886,1.65-2.554 c1.623-1.638,2.059-4.332,1.034-6.398c-0.308-0.622-0.731-1.183-0.999-1.822c-0.996-2.376,0.302-5.358-1.026-7.562 c-0.568-9.047-1.529-17.592-2.289-26.153c-0.761-8.566-1.318-17.148-1.877-25.728c-0.85-13.06-1.7-26.119-2.551-39.178 c0.945-6.944,3.852-11.416,6.176-16.085c2.681-5.392,4.608-11.12,6.525-16.828c0.913-2.714,1.824-5.428,2.736-8.142l2.668-7.942 c1.575-4.686,3.15-9.372,4.724-14.058c1.563-7.753,3.286-14.078,4.567-20.49c0.861-4.309,1.526-8.708,1.166-13.089 c-0.42-5.124-2.224-10.025-4.191-14.773c-6.353-15.327-14.58-29.799-21.577-44.841c-1.112-1.958-1.49-3.336-1.572-4.678 c3.129-0.084,5.359-0.829,5.934-2.607c0.697-2.156-2.227-4.883-6.184-7.462c-0.247-1.015-0.574-2.011-0.99-2.97 c-0.325-0.747-0.725-1.503-1.39-1.976c-0.665-0.472-1.659-0.571-2.262-0.021c-0.516,0.47-0.601,1.253-0.512,1.947 c-0.445-0.239-0.89-0.474-1.332-0.702c-0.079-0.26-0.15-0.522-0.214-0.786c-0.167-0.692-0.301-1.401-0.596-2.05 c-0.293-0.649-0.774-1.249-1.436-1.512c-0.631-0.253-1.356-0.171-1.987,0.082c-0.348,0.14-0.691,0.343-0.881,0.666 c-0.167,0.286-0.195,0.628-0.211,0.958c-0.001,0.016,0,0.033-0.001,0.049c-0.248-0.114-0.488-0.224-0.722-0.33 c-0.115-0.59-0.209-1.179-0.239-1.775c-0.06-1.207,0.018-2.621-0.922-3.382c-0.655-0.532-1.591-0.478-2.349-0.077 c0.839-4.252,3.446-11.674,11.537-18.51c41.7,6.231,68.852-24.449,78.865-45.345C452.625,151.408,453.336,140.83,448.228,137.402z M309.855,119.534c2.393-13.243,7.228-19.283,9.738-19.195c5.53,0.194,7.703,5.207,8.555,8.776 c-0.869,2.977-13.419,47.49,5.202,73.399c3.253,4.526,5.518,8.751,7.139,12.691C309.422,176.146,306.136,140.095,309.855,119.534z M351.34,246.808c-0.324-0.245-0.623-0.461-0.932-0.689c0.239,0.068,0.477,0.136,0.72,0.205 C351.198,246.485,351.269,246.646,351.34,246.808z M379.81,316.634c-4.078,6.287-6.823,13.3-8.105,20.575 c-1.422,0.059-2.098,0.934-2.376,1.842c-0.278,0.908-0.256,1.877-0.379,2.819c-0.396,3.046-2.434,5.828-5.218,7.126 c-1.747,0.815-3.862,1.16-5.036,2.688c-0.341,0.444-0.589,0.975-1.038,1.311c-0.534,0.397-1.241,0.439-1.875,0.637 c-1.048,0.33-1.933,1.143-2.347,2.16c-0.517,1.266-0.509,3.008-1.767,3.54c-0.997,0.421-2.169-0.272-3.208,0.031 c-0.464-0.234,0.359-7.08,0.359-7.08c1.548-1.081,2.661-2.765,3.049-4.612c1.408,0.458,2.882-0.064,3.592-1.022 c0.711-0.958,0.884-2.195,1.126-3.362c0.267-1.301,0.644-2.579,1.123-3.818c0.294-0.762,0.631-1.521,0.72-2.333 c0.062-0.565-0.02-1.187-0.409-1.603c-0.389-0.416-1.15-0.497-1.505-0.053c-0.762-2.798-0.138-5.666,1.37-7.971 c0.663-1.012,1.486-1.918,2.072-2.978c1.201-2.172,1.289-4.803,0.876-7.249c-0.181-1.069-0.451-2.136-0.4-3.219 c0.039-0.797,0.249-1.574,0.375-2.361c0.348-2.199,0.019-4.445-0.31-6.647c-0.384-2.563-0.933-5.41-3.044-6.914 c-0.732-0.52-1.592-0.828-2.37-1.276c-1.343-0.776-2.399-1.949-3.517-3.024c-2.236-2.149-4.859-3.993-7.853-4.798 c-2.994-0.806-6.398-0.455-8.869,1.419c-0.712,0.54-1.386,1.219-2.264,1.379c-0.486,0.089-0.984,0.008-1.476-0.039 c-2.382-0.222-4.836,0.44-6.784,1.83c-1.667,1.189-2.94,2.863-4.601,4.061c-0.686,0.495-1.432,0.905-2.091,1.435 c-0.808,0.649-1.466,1.463-2.117,2.27c-2.295,2.845-4.626,5.751-5.928,9.166c-2.445,6.413-0.929,13.591,0.865,20.217 c-0.789,0.332-1.704,1.217-2.362,2.289c-0.658,1.073-1.042,2.368-0.784,3.599c0.29,1.386,1.34,2.519,1.641,3.902 c0.117,0.538,0.117,1.105,0.312,1.619c0.359,0.955,1.336,1.565,2.335,1.767c1,0.202,2.032,0.063,3.042-0.077 c2.765,3.522,2.455,8.13,4.279,11.878c-1.538,0.067-1.84-1.084-2.681-1.238c-0.265-0.048-0.536,0.018-0.805,0.005 c-0.754-0.031-1.357-0.651-1.721-1.314c-0.363-0.661-0.576-1.407-1.011-2.023c-0.902-1.273-2.622-1.812-3.414-3.157 c-0.558-0.947-0.552-2.132-1.031-3.122c-0.481-0.993-1.418-1.729-1.805-2.763c-0.314-0.842-0.225-1.781-0.44-2.655 c-0.163-0.66-0.498-1.268-0.677-1.925c-0.535-1.955,0.319-4.249-0.775-5.954c-0.65-8.659-1.866-16.754-3.571-24.743 c2.552-6.204,5.004-12.197,7.456-18.188c2.67-6.525,5.34-13.051,8.132-19.524c3.111-7.212,6.426-14.446,11.368-20.55 c3.837-0.407,8.119-1.281,10.758-4.22c0.435-0.486,0.819-1.019,1.204-1.55c1.034,0.348,1.998,0.665,2.858,0.944 c0.655,0.212,1.372,0.441,2.135,0.68c-0.106,0.198-0.191,0.408-0.228,0.627c-0.107,0.639,0.048,1.293,0.254,1.908 c0.945,2.843,2.941,5.246,5.272,7.129c2.331,1.884,4.998,3.298,7.658,4.676c1.355,0.241,1.93,1.12,2.397,1.935 C370.066,277.911,372.728,298.164,379.81,316.634z M442.366,162.403c-9.05,18.88-32.907,46.254-69.374,43.377 c3.633-2.259,7.966-4.369,13.284-6.143c29.581-9.864,45.435-51.558,47.11-56.172c2.747-2.436,7.602-5.499,12.329-2.324 C447.802,142.541,448.18,150.267,442.366,162.403z"/>
      <path style="clip-path:url(#SVGID_00000079480856971288166400000007394279067471204263_);" d="M767.939,293.912 c-1.075-6.391-5.714-11.518-10.232-16.164c-12.819-13.18-26.324-25.693-40.442-37.47c0.251-8.672-0.745-16.424-3.337-23.604 c-0.337-4.145,0.221-7.214,1.332-10.069c0.451-1.16,0.995-2.294,1.261-3.511c0.266-1.216,0.222-2.561-0.444-3.612 c-0.232-0.365-0.549-0.697-0.958-0.832c-1.053-0.348-2.02,0.686-2.608,1.625c-1.384,2.211-2.504,4.588-3.326,7.063 c-0.328-2.499,0.317-4.553,0.76-6.647c0.442-2.094,0.678-4.287,0.15-6.362c-0.146-0.573-0.384-1.176-0.889-1.484 c-0.484-0.293-1.115-0.242-1.629-0.01c-0.516,0.232-0.941,0.622-1.356,1.005c-0.443-0.943-0.744-1.724-1.308-2.298 c-0.565-0.574-1.45-0.897-2.201-0.605c0.198-1.05,0.332-2.307-0.46-3.027c-0.696-0.633-1.841-0.506-2.615,0.031 c-0.772,0.538-1.261,1.385-1.725,2.205c-0.973-0.898-2.081-0.945-2.943-0.578c-0.861,0.366-1.533,1.061-2.179,1.738 c-1.332,1.394-2.664,2.789-3.996,4.183c-0.342-0.512-0.978-1.113-1.64-1.196c-0.663-0.083-1.313,0.21-1.893,0.54 c-1.175,0.669-2.239,1.516-3.258,2.405c-3.232,2.823-6.192,6.394-6.67,10.658c-1.836,3.708-3.074,7.509-3.893,11.398 c-0.879,4.177-1.287,8.491-2.844,12.466c-1.152,2.939-2.897,5.601-4.593,8.264c-3.997,6.28-7.777,12.698-11.333,19.239 c-4.221,7.767-8.14,15.743-10.85,24.158c-4.492,13.947-5.605,28.905-11.13,42.475c-2.5,3.393-4.476,6.262-5.012,9.571 c-0.163,1.006-0.187,2.032-0.351,3.039c-0.158,0.968-0.442,1.912-0.726,2.851L622.899,347c-1.867,6.183-3.729,12.884-1.557,18.968 c0.604,15.903,2.944,31.707,6.412,47.259c1.868,8.371,4.077,16.823,3.603,25.386c-0.61,11.035-5.644,21.496-6.004,32.542 c-0.117,3.578,0.259,7.184-0.251,10.727c-1.099,7.643-6.113,15.892-1.954,22.398h105.487c1.681-12.226,0.556-24.771,1.375-37.134 c1.571-23.716,10.311-46.661,10.484-70.428c3.768-7.307,6.155-13.265,8.541-19.222c1.288-3.215,2.592-6.46,4.573-9.301 c0.935-1.341,2.027-2.603,2.628-4.124c0.609-1.544,0.668-3.247,1.103-4.849c0.499-1.838,1.484-3.505,2.167-5.284 c1.594-4.146,1.503-8.72,1.39-13.161c2.721-7.595,3.978-12.285,4.74-18.507c0.812-6.609,1.922-14.2,2.368-20.509 C768.19,299.145,768.375,296.499,767.939,293.912z M736.19,299.687c-0.2,2.227-1.64,4.111-2.835,6.001 c-3.61,5.714-5.328,12.601-5.577,19.14c-2.995,1.603-1.831,6.781-4.577,8.781c-0.459,0.335-1.003,0.553-1.416,0.943 c-1.259,1.187-0.969,3.59-2.475,4.443c-0.53,0.301-1.199,0.336-1.672,0.721c-0.971,0.791-0.531,2.48-1.343,3.434 c-0.707,0.83-2.101,0.793-2.783,1.644c-0.599,0.748-0.511,2.024-1.366,2.458c-0.458,0.233-1.074,0.133-1.442,0.491 c-0.244,0.238-0.297,0.603-0.4,0.928c-0.529,1.69-2.458,2.433-4.15,2.953c-0.091-0.724,0.049-1.6,0.187-2.476 c0.193-1.209,0.391-2.439,0.927-3.54c0.804-1.65,2.282-2.852,3.439-4.277c3.4-4.19,3.727-10.603,0.773-15.117 c1.398-5.541-0.037-11.578-2.668-16.764c-1.126-2.22-2.465-4.325-3.801-6.426c-0.688-1.083-1.396-2.187-2.404-2.982 c-0.897-0.708-1.995-1.136-2.872-1.87c-0.873-0.729-1.516-1.748-2.52-2.283c-1.356-0.722-3.011-0.389-4.527-0.637 c-1.127-0.184-2.174-0.692-3.28-0.975c-1.64-0.42-3.369-0.335-5.044-0.09c-7.591,1.114-14.613,5.648-18.753,12.108 c-1.319,2.059-2.375,4.374-2.454,6.301c-1.348-5.58-0.022-11.485,2.12-16.812c2.141-5.327,5.083-10.307,7.167-15.657 c2.931-7.524,4.098-15.602,6.25-23.385c2.152-7.783,5.526-15.603,12.651-21.118c1.857,5.694,6.226,10.141,10.225,14.599 c8.218,9.16,15.374,19.209,22.512,29.233c3.035,4.264,6.07,8.527,9.106,12.79C734.774,294.474,736.436,296.963,736.19,299.687z"/>
    </g>
  </g>
</svg>